<svg width="36" height="36" viewBox="0 0 36 36" fill="none" xmlns="http://www.w3.org/2000/svg">
<path d="M18 36C27.9411 36 36 27.9411 36 18C36 8.05887 27.9411 0 18 0C8.05887 0 0 8.05887 0 18C0 27.9411 8.05887 36 18 36Z" fill="#38AF8D"/>
<path d="M9.53067 15.5498C9.14323 14.6125 8.96409 13.6022 9.00567 12.5888C9.0377 11.9683 9.31205 11.3852 9.76967 10.9648C10.2697 10.4868 10.7487 9.98584 11.2507 9.48384C11.3829 9.33199 11.5462 9.21025 11.7295 9.12683C11.9128 9.04341 12.1118 9.00024 12.3132 9.00024C12.5145 9.00024 12.7136 9.04341 12.8969 9.12683C13.0801 9.21025 13.2434 9.33199 13.3757 9.48384L14.5697 10.6778C14.9517 11.0598 15.3577 11.4418 15.7397 11.8478C15.8993 11.9803 16.0278 12.1464 16.116 12.3342C16.2041 12.522 16.2499 12.7269 16.2499 12.9343C16.2499 13.1418 16.2041 13.3467 16.116 13.5345C16.0278 13.7223 15.8993 13.8883 15.7397 14.0208L14.2827 15.4798C14.2273 15.5246 14.1896 15.5876 14.1764 15.6576C14.1632 15.7276 14.1754 15.8 14.2107 15.8618C14.545 16.6291 14.9871 17.3446 15.5237 17.9868C16.5668 19.3019 17.8164 20.439 19.2237 21.3538C19.5337 21.5448 19.8687 21.6878 20.1787 21.8538C20.2094 21.8777 20.2447 21.8948 20.2824 21.9041C20.3201 21.9134 20.3594 21.9147 20.3976 21.9079C20.4359 21.9012 20.4723 21.8864 20.5045 21.8647C20.5367 21.843 20.564 21.8148 20.5847 21.7818C21.0627 21.2818 21.5637 20.8028 22.0657 20.3008C22.1979 20.149 22.3612 20.0272 22.5445 19.9438C22.7278 19.8604 22.9268 19.8172 23.1282 19.8172C23.3295 19.8172 23.5286 19.8604 23.7119 19.9438C23.8951 20.0272 24.0584 20.149 24.1907 20.3008C24.9787 21.0888 25.7907 21.8768 26.5787 22.6648C26.736 22.7962 26.8625 22.9606 26.9494 23.1462C27.0362 23.3319 27.0812 23.5344 27.0812 23.7393C27.0812 23.9443 27.0362 24.1468 26.9494 24.3324C26.8625 24.5181 26.736 24.6824 26.5787 24.8138C26.1247 25.2678 25.6477 25.6978 25.2177 26.1748C24.9321 26.4908 24.575 26.7338 24.1762 26.8835C23.7774 27.0331 23.3486 27.085 22.9257 27.0348C21.6459 26.9535 20.3991 26.5949 19.2717 25.9838C16.7548 24.7609 14.525 23.0195 12.7287 20.8738C11.3687 19.2932 10.2873 17.4929 9.53067 15.5498Z" fill="white"/>
</svg>
