<svg width="40" height="40" viewBox="0 0 40 40" fill="none" xmlns="http://www.w3.org/2000/svg">
<path d="M19.5859 38.1719C17.0773 38.1719 14.6432 37.6803 12.3512 36.7109C10.1378 35.7747 8.15028 34.4348 6.4437 32.7282C4.73712 31.0216 3.39714 29.034 2.46099 26.8207C1.49155 24.5287 1 22.0946 1 19.5859C1 17.0773 1.49155 14.6432 2.46099 12.3512C3.39714 10.1378 4.73712 8.15028 6.4437 6.4437C8.15028 4.73712 10.1378 3.39714 12.3512 2.46099C14.6432 1.49155 17.0773 1 19.5859 1C22.0946 1 24.5287 1.49155 26.8207 2.46099C29.034 3.39714 31.0216 4.73712 32.7282 6.4437C34.4348 8.15028 35.7747 10.1378 36.7109 12.3512C37.6803 14.6432 38.1719 17.0773 38.1719 19.5859C38.1719 22.0946 37.6803 24.5287 36.7109 26.8207C35.7747 29.034 34.4348 31.0216 32.7282 32.7282C31.0216 34.4348 29.034 35.7747 26.8207 36.7109C24.5287 37.6803 22.0946 38.1719 19.5859 38.1719Z" fill="#2C9085"/>
<path d="M19.5859 2C9.8735 2 2 9.8735 2 19.5859C2 29.2984 9.8735 37.1719 19.5859 37.1719C29.2984 37.1719 37.1719 29.2984 37.1719 19.5859C37.1719 9.8735 29.2984 2 19.5859 2ZM19.5859 0C22.2291 0 24.7943 0.51812 27.2103 1.53998C29.5428 2.52656 31.6372 3.9385 33.4353 5.73659C35.2334 7.53468 36.6453 9.62908 37.6319 11.9616C38.6538 14.3775 39.1719 16.9427 39.1719 19.5859C39.1719 22.2291 38.6538 24.7943 37.6319 27.2103C36.6453 29.5428 35.2334 31.6372 33.4353 33.4353C31.6372 35.2334 29.5428 36.6453 27.2103 37.6319C24.7943 38.6538 22.2291 39.1719 19.5859 39.1719C16.9427 39.1719 14.3775 38.6538 11.9616 37.6319C9.62908 36.6453 7.53468 35.2334 5.73659 33.4353C3.9385 31.6372 2.52656 29.5428 1.53998 27.2103C0.51812 24.7943 0 22.2291 0 19.5859C0 16.9427 0.51812 14.3775 1.53998 11.9616C2.52656 9.62908 3.9385 7.53468 5.73659 5.73659C7.53468 3.9385 9.62908 2.52656 11.9616 1.53998C14.3775 0.51812 16.9427 0 19.5859 0Z" fill="white"/>
<path d="M28.536 26.659H11.471C11.1343 26.6571 10.8121 26.5217 10.5751 26.2825C10.3381 26.0432 10.2057 25.7197 10.207 25.383V16.117C10.2057 15.7802 10.3381 15.4567 10.5751 15.2175C10.8121 14.9782 11.1343 14.8428 11.471 14.841H14.471C14.5864 14.8406 14.6999 14.8122 14.8018 14.7582C14.9037 14.7042 14.991 14.6262 15.056 14.531L16.455 12.465C16.5824 12.3177 16.7381 12.1976 16.9128 12.1117C17.0875 12.0258 17.2777 11.9759 17.472 11.965H22.534C22.7283 11.9756 22.9185 12.0254 23.0931 12.1113C23.2676 12.1972 23.4231 12.3175 23.55 12.465L24.941 14.515C25.0075 14.6131 25.0969 14.6936 25.2014 14.7495C25.3059 14.8055 25.4225 14.8351 25.541 14.836H28.533C28.8695 14.8378 29.1915 14.9731 29.4283 15.2122C29.6651 15.4512 29.7974 15.7745 29.796 16.111V25.377C29.7975 25.5439 29.7661 25.7094 29.7035 25.8642C29.641 26.019 29.5486 26.1599 29.4316 26.2789C29.3146 26.398 29.1753 26.4928 29.0216 26.558C28.8679 26.6232 28.703 26.6575 28.536 26.659ZM20.007 16.397C19.1702 16.3876 18.3495 16.6273 17.6492 17.0854C16.9489 17.5436 16.4006 18.1996 16.0739 18.9701C15.7472 19.7405 15.657 20.5907 15.8146 21.4126C15.9722 22.2345 16.3705 22.991 16.959 23.586C17.5475 24.181 18.2996 24.5876 19.1197 24.7542C19.9399 24.9208 20.791 24.8399 21.565 24.5217C22.339 24.2035 23.001 23.6624 23.4668 22.9671C23.9326 22.2719 24.1812 21.4538 24.181 20.617C24.1864 19.5041 23.7498 18.4346 22.9672 17.6434C22.1846 16.8521 21.1199 16.4038 20.007 16.397ZM20.088 23.765C19.469 23.7717 18.8619 23.5943 18.3439 23.2553C17.8259 22.9163 17.4204 22.431 17.1787 21.8611C16.9371 21.2911 16.8703 20.6622 16.9869 20.0542C17.1034 19.4462 17.3981 18.8865 17.8333 18.4463C18.2686 18.0061 18.8249 17.7052 19.4315 17.5818C20.0382 17.4584 20.6678 17.5181 21.2405 17.7533C21.8131 17.9885 22.303 18.3886 22.6478 18.9027C22.9926 19.4169 23.1768 20.0219 23.177 20.641C23.1808 21.4646 22.8576 22.2561 22.2785 22.8417C21.6994 23.4274 20.9116 23.7594 20.088 23.765ZM14.019 14.348H12.073V13.857C12.0725 13.7272 12.1235 13.6025 12.2148 13.5102C12.3061 13.418 12.4303 13.3658 12.56 13.365H13.534C13.6637 13.366 13.7876 13.4184 13.8786 13.5106C13.9697 13.6028 14.0206 13.7274 14.02 13.857V14.347L14.019 14.348Z" fill="white"/>
<path d="M24.7431 16.647C24.7419 16.7581 24.7627 16.8684 24.8043 16.9714C24.8459 17.0745 24.9074 17.1683 24.9854 17.2475C25.0634 17.3266 25.1562 17.3896 25.2586 17.4328C25.361 17.476 25.471 17.4984 25.5821 17.499C25.6931 17.4983 25.803 17.4757 25.9052 17.4325C26.0075 17.3893 26.1003 17.3263 26.1781 17.2471C26.256 17.1679 26.3175 17.0742 26.359 16.9712C26.4005 16.8682 26.4213 16.758 26.4201 16.647C26.4207 16.5363 26.3996 16.4265 26.3578 16.324C26.3161 16.2215 26.2545 16.1282 26.1767 16.0494C26.0989 15.9707 26.0063 15.908 25.9043 15.865C25.8023 15.8221 25.6928 15.7996 25.5821 15.799C25.3584 15.8003 25.1444 15.8903 24.9871 16.0493C24.8298 16.2083 24.742 16.4233 24.7431 16.647Z" fill="white"/>
</svg>
