<svg width="24" height="24" viewBox="0 0 24 24" fill="none" xmlns="http://www.w3.org/2000/svg">
<path d="M8.2001 22C9.08375 22 9.8001 21.2836 9.8001 20.4C9.8001 19.5163 9.08375 18.8 8.2001 18.8C7.31644 18.8 6.6001 19.5163 6.6001 20.4C6.6001 21.2836 7.31644 22 8.2001 22Z" fill="#677B8A"/>
<path d="M18.6 22C19.4837 22 20.2 21.2836 20.2 20.4C20.2 19.5163 19.4837 18.8 18.6 18.8C17.7163 18.8 17 19.5163 17 20.4C17 21.2836 17.7163 22 18.6 22Z" fill="#677B8A"/>
<path d="M4.42858 6H22.3714L19.7316 15.2396C19.636 15.5739 19.4342 15.868 19.1566 16.0774C18.879 16.2867 18.5408 16.4 18.1931 16.4H8.60688C8.25919 16.4 7.92095 16.2867 7.64337 16.0774C7.36579 15.868 7.16396 15.5739 7.06844 15.2396L3.45149 2.58022C3.40373 2.41306 3.30282 2.26601 3.16403 2.16132C3.02524 2.05663 2.85612 2 2.68227 2H1" stroke="#677B8A" stroke-width="2" stroke-linecap="round" stroke-linejoin="round"/>
</svg>
