<svg width="261" height="13" viewBox="0 0 261 13" fill="none" xmlns="http://www.w3.org/2000/svg">
<path d="M0.367188 1.43359H2.78711C3.92383 1.43359 4.74609 1.60352 5.25391 1.94336C5.76172 2.2832 6.01562 2.82031 6.01562 3.55469C6.01562 4.0625 5.87305 4.48242 5.58789 4.81445C5.30664 5.14258 4.89453 5.35547 4.35156 5.45312V5.51172C5.65234 5.73438 6.30273 6.41797 6.30273 7.5625C6.30273 8.32812 6.04297 8.92578 5.52344 9.35547C5.00781 9.78516 4.28516 10 3.35547 10H0.367188V1.43359ZM1.36328 5.10156H3.00391C3.70703 5.10156 4.21289 4.99219 4.52148 4.77344C4.83008 4.55078 4.98438 4.17773 4.98438 3.6543C4.98438 3.17383 4.8125 2.82812 4.46875 2.61719C4.125 2.40234 3.57812 2.29492 2.82812 2.29492H1.36328V5.10156ZM1.36328 5.94531V9.15039H3.15039C3.8418 9.15039 4.36133 9.01758 4.70898 8.75195C5.06055 8.48242 5.23633 8.0625 5.23633 7.49219C5.23633 6.96094 5.05664 6.57031 4.69727 6.32031C4.3418 6.07031 3.79883 5.94531 3.06836 5.94531H1.36328ZM6.98242 3.57812H8.02539L9.43164 7.24023C9.74023 8.07617 9.93164 8.67969 10.0059 9.05078H10.0527C10.1035 8.85156 10.209 8.51172 10.3691 8.03125C10.5332 7.54688 11.0645 6.0625 11.9629 3.57812H13.0059L10.2461 10.8906C9.97266 11.6133 9.65234 12.125 9.28516 12.4258C8.92188 12.7305 8.47461 12.8828 7.94336 12.8828C7.64648 12.8828 7.35352 12.8496 7.06445 12.7832V12.0039C7.2793 12.0508 7.51953 12.0742 7.78516 12.0742C8.45312 12.0742 8.92969 11.6992 9.21484 10.9492L9.57227 10.0352L6.98242 3.57812ZM19.7324 10.1172C18.8027 10.1172 18.082 9.83203 17.5703 9.26172C17.0625 8.6875 16.8086 7.87695 16.8086 6.83008C16.8086 5.75586 17.0664 4.92578 17.582 4.33984C18.1016 3.75391 18.8398 3.46094 19.7969 3.46094C20.1055 3.46094 20.4141 3.49414 20.7227 3.56055C21.0312 3.62695 21.2734 3.70508 21.4492 3.79492L21.1504 4.62109C20.9355 4.53516 20.7012 4.46484 20.4473 4.41016C20.1934 4.35156 19.9688 4.32227 19.7734 4.32227C18.4688 4.32227 17.8164 5.1543 17.8164 6.81836C17.8164 7.60742 17.9746 8.21289 18.291 8.63477C18.6113 9.05664 19.084 9.26758 19.709 9.26758C20.2441 9.26758 20.793 9.15234 21.3555 8.92188V9.7832C20.9258 10.0059 20.3848 10.1172 19.7324 10.1172ZM28.4277 6.7832C28.4277 7.83008 28.1641 8.64844 27.6367 9.23828C27.1094 9.82422 26.3809 10.1172 25.4512 10.1172C24.877 10.1172 24.3672 9.98242 23.9219 9.71289C23.4766 9.44336 23.1328 9.05664 22.8906 8.55273C22.6484 8.04883 22.5273 7.45898 22.5273 6.7832C22.5273 5.73633 22.7891 4.92188 23.3125 4.33984C23.8359 3.75391 24.5625 3.46094 25.4922 3.46094C26.3906 3.46094 27.1035 3.75977 27.6309 4.35742C28.1621 4.95508 28.4277 5.76367 28.4277 6.7832ZM23.5352 6.7832C23.5352 7.60352 23.6992 8.22852 24.0273 8.6582C24.3555 9.08789 24.8379 9.30273 25.4746 9.30273C26.1113 9.30273 26.5938 9.08984 26.9219 8.66406C27.2539 8.23438 27.4199 7.60742 27.4199 6.7832C27.4199 5.9668 27.2539 5.34766 26.9219 4.92578C26.5938 4.5 26.1074 4.28711 25.4629 4.28711C24.8262 4.28711 24.3457 4.49609 24.0215 4.91406C23.6973 5.33203 23.5352 5.95508 23.5352 6.7832ZM34.5332 10V5.8457C34.5332 5.32227 34.4141 4.93164 34.1758 4.67383C33.9375 4.41602 33.5645 4.28711 33.0566 4.28711C32.3848 4.28711 31.8926 4.46875 31.5801 4.83203C31.2676 5.19531 31.1113 5.79492 31.1113 6.63086V10H30.1387V3.57812H30.9297L31.0879 4.45703H31.1348C31.334 4.14062 31.6133 3.89648 31.9727 3.72461C32.332 3.54883 32.7324 3.46094 33.1738 3.46094C33.9473 3.46094 34.5293 3.64844 34.9199 4.02344C35.3105 4.39453 35.5059 4.99023 35.5059 5.81055V10H34.5332ZM39.584 9.31445C39.7559 9.31445 39.9219 9.30273 40.082 9.2793C40.2422 9.25195 40.3691 9.22461 40.4629 9.19727V9.94141C40.3574 9.99219 40.2012 10.0332 39.9941 10.0645C39.791 10.0996 39.6074 10.1172 39.4434 10.1172C38.2012 10.1172 37.5801 9.46289 37.5801 8.1543V4.33398H36.6602V3.86523L37.5801 3.46094L37.9902 2.08984H38.5527V3.57812H40.416V4.33398H38.5527V8.11328C38.5527 8.5 38.6445 8.79688 38.8281 9.00391C39.0117 9.21094 39.2637 9.31445 39.584 9.31445ZM42.7246 10H41.752V3.57812H42.7246V10ZM41.6699 1.83789C41.6699 1.61523 41.7246 1.45312 41.834 1.35156C41.9434 1.24609 42.0801 1.19336 42.2441 1.19336C42.4004 1.19336 42.5352 1.24609 42.6484 1.35156C42.7617 1.45703 42.8184 1.61914 42.8184 1.83789C42.8184 2.05664 42.7617 2.2207 42.6484 2.33008C42.5352 2.43555 42.4004 2.48828 42.2441 2.48828C42.0801 2.48828 41.9434 2.43555 41.834 2.33008C41.7246 2.2207 41.6699 2.05664 41.6699 1.83789ZM49.1816 10V5.8457C49.1816 5.32227 49.0625 4.93164 48.8242 4.67383C48.5859 4.41602 48.2129 4.28711 47.7051 4.28711C47.0332 4.28711 46.541 4.46875 46.2285 4.83203C45.916 5.19531 45.7598 5.79492 45.7598 6.63086V10H44.7871V3.57812H45.5781L45.7363 4.45703H45.7832C45.9824 4.14062 46.2617 3.89648 46.6211 3.72461C46.9805 3.54883 47.3809 3.46094 47.8223 3.46094C48.5957 3.46094 49.1777 3.64844 49.5684 4.02344C49.959 4.39453 50.1543 4.99023 50.1543 5.81055V10H49.1816ZM53.0723 3.57812V7.74414C53.0723 8.26758 53.1914 8.6582 53.4297 8.91602C53.668 9.17383 54.041 9.30273 54.5488 9.30273C55.2207 9.30273 55.7109 9.11914 56.0195 8.75195C56.332 8.38477 56.4883 7.78516 56.4883 6.95312V3.57812H57.4609V10H56.6582L56.5176 9.13867H56.4648C56.2656 9.45508 55.9883 9.69727 55.6328 9.86523C55.2812 10.0332 54.8789 10.1172 54.4258 10.1172C53.6445 10.1172 53.0586 9.93164 52.668 9.56055C52.2812 9.18945 52.0879 8.5957 52.0879 7.7793V3.57812H53.0723ZM60.502 10H59.5293V3.57812H60.502V10ZM59.4473 1.83789C59.4473 1.61523 59.502 1.45312 59.6113 1.35156C59.7207 1.24609 59.8574 1.19336 60.0215 1.19336C60.1777 1.19336 60.3125 1.24609 60.4258 1.35156C60.5391 1.45703 60.5957 1.61914 60.5957 1.83789C60.5957 2.05664 60.5391 2.2207 60.4258 2.33008C60.3125 2.43555 60.1777 2.48828 60.0215 2.48828C59.8574 2.48828 59.7207 2.43555 59.6113 2.33008C59.502 2.2207 59.4473 2.05664 59.4473 1.83789ZM66.959 10V5.8457C66.959 5.32227 66.8398 4.93164 66.6016 4.67383C66.3633 4.41602 65.9902 4.28711 65.4824 4.28711C64.8105 4.28711 64.3184 4.46875 64.0059 4.83203C63.6934 5.19531 63.5371 5.79492 63.5371 6.63086V10H62.5645V3.57812H63.3555L63.5137 4.45703H63.5605C63.7598 4.14062 64.0391 3.89648 64.3984 3.72461C64.7578 3.54883 65.1582 3.46094 65.5996 3.46094C66.373 3.46094 66.9551 3.64844 67.3457 4.02344C67.7363 4.39453 67.9316 4.99023 67.9316 5.81055V10H66.959ZM75.1914 3.57812V4.19336L74.002 4.33398C74.1113 4.4707 74.209 4.65039 74.2949 4.87305C74.3809 5.0918 74.4238 5.33984 74.4238 5.61719C74.4238 6.24609 74.209 6.74805 73.7793 7.12305C73.3496 7.49805 72.7598 7.68555 72.0098 7.68555C71.8184 7.68555 71.6387 7.66992 71.4707 7.63867C71.0566 7.85742 70.8496 8.13281 70.8496 8.46484C70.8496 8.64062 70.9219 8.77148 71.0664 8.85742C71.2109 8.93945 71.459 8.98047 71.8105 8.98047H72.9473C73.6426 8.98047 74.1758 9.12695 74.5469 9.41992C74.9219 9.71289 75.1094 10.1387 75.1094 10.6973C75.1094 11.4082 74.8242 11.9492 74.2539 12.3203C73.6836 12.6953 72.8516 12.8828 71.7578 12.8828C70.918 12.8828 70.2695 12.7266 69.8125 12.4141C69.3594 12.1016 69.1328 11.6602 69.1328 11.0898C69.1328 10.6992 69.2578 10.3613 69.5078 10.0762C69.7578 9.79102 70.1094 9.59766 70.5625 9.49609C70.3984 9.42188 70.2598 9.30664 70.1465 9.15039C70.0371 8.99414 69.9824 8.8125 69.9824 8.60547C69.9824 8.37109 70.0449 8.16602 70.1699 7.99023C70.2949 7.81445 70.4922 7.64453 70.7617 7.48047C70.4297 7.34375 70.1582 7.11133 69.9473 6.7832C69.7402 6.45508 69.6367 6.08008 69.6367 5.6582C69.6367 4.95508 69.8477 4.41406 70.2695 4.03516C70.6914 3.65234 71.2891 3.46094 72.0625 3.46094C72.3984 3.46094 72.7012 3.5 72.9707 3.57812H75.1914ZM70.0703 11.0781C70.0703 11.4258 70.2168 11.6895 70.5098 11.8691C70.8027 12.0488 71.2227 12.1387 71.7695 12.1387C72.5859 12.1387 73.1895 12.0156 73.5801 11.7695C73.9746 11.5273 74.1719 11.1973 74.1719 10.7793C74.1719 10.4316 74.0645 10.1895 73.8496 10.0527C73.6348 9.91992 73.2305 9.85352 72.6367 9.85352H71.4707C71.0293 9.85352 70.6855 9.95898 70.4395 10.1699C70.1934 10.3809 70.0703 10.6836 70.0703 11.0781ZM70.5977 5.63477C70.5977 6.08398 70.7246 6.42383 70.9785 6.6543C71.2324 6.88477 71.5859 7 72.0391 7C72.9883 7 73.4629 6.53906 73.4629 5.61719C73.4629 4.65234 72.9824 4.16992 72.0215 4.16992C71.5645 4.16992 71.2129 4.29297 70.9668 4.53906C70.7207 4.78516 70.5977 5.15039 70.5977 5.63477ZM77.5293 8.60547L77.6172 8.74023C77.5156 9.13086 77.3691 9.58398 77.1777 10.0996C76.9863 10.6191 76.7871 11.1016 76.5801 11.5469H75.8477C75.9531 11.1406 76.0684 10.6387 76.1934 10.041C76.3223 9.44336 76.4121 8.96484 76.4629 8.60547H77.5293ZM81.5488 3.57812H82.5918L83.998 7.24023C84.3066 8.07617 84.498 8.67969 84.5723 9.05078H84.6191C84.6699 8.85156 84.7754 8.51172 84.9355 8.03125C85.0996 7.54688 85.6309 6.0625 86.5293 3.57812H87.5723L84.8125 10.8906C84.5391 11.6133 84.2188 12.125 83.8516 12.4258C83.4883 12.7305 83.041 12.8828 82.5098 12.8828C82.2129 12.8828 81.9199 12.8496 81.6309 12.7832V12.0039C81.8457 12.0508 82.0859 12.0742 82.3516 12.0742C83.0195 12.0742 83.4961 11.6992 83.7812 10.9492L84.1387 10.0352L81.5488 3.57812ZM94.1582 6.7832C94.1582 7.83008 93.8945 8.64844 93.3672 9.23828C92.8398 9.82422 92.1113 10.1172 91.1816 10.1172C90.6074 10.1172 90.0977 9.98242 89.6523 9.71289C89.207 9.44336 88.8633 9.05664 88.6211 8.55273C88.3789 8.04883 88.2578 7.45898 88.2578 6.7832C88.2578 5.73633 88.5195 4.92188 89.043 4.33984C89.5664 3.75391 90.293 3.46094 91.2227 3.46094C92.1211 3.46094 92.834 3.75977 93.3613 4.35742C93.8926 4.95508 94.1582 5.76367 94.1582 6.7832ZM89.2656 6.7832C89.2656 7.60352 89.4297 8.22852 89.7578 8.6582C90.0859 9.08789 90.5684 9.30273 91.2051 9.30273C91.8418 9.30273 92.3242 9.08984 92.6523 8.66406C92.9844 8.23438 93.1504 7.60742 93.1504 6.7832C93.1504 5.9668 92.9844 5.34766 92.6523 4.92578C92.3242 4.5 91.8379 4.28711 91.1934 4.28711C90.5566 4.28711 90.0762 4.49609 89.752 4.91406C89.4277 5.33203 89.2656 5.95508 89.2656 6.7832ZM96.7832 3.57812V7.74414C96.7832 8.26758 96.9023 8.6582 97.1406 8.91602C97.3789 9.17383 97.752 9.30273 98.2598 9.30273C98.9316 9.30273 99.4219 9.11914 99.7305 8.75195C100.043 8.38477 100.199 7.78516 100.199 6.95312V3.57812H101.172V10H100.369L100.229 9.13867H100.176C99.9766 9.45508 99.6992 9.69727 99.3438 9.86523C98.9922 10.0332 98.5898 10.1172 98.1367 10.1172C97.3555 10.1172 96.7695 9.93164 96.3789 9.56055C95.9922 9.18945 95.7988 8.5957 95.7988 7.7793V3.57812H96.7832ZM106.17 3.46094C106.455 3.46094 106.711 3.48438 106.938 3.53125L106.803 4.43359C106.537 4.375 106.303 4.3457 106.1 4.3457C105.58 4.3457 105.135 4.55664 104.764 4.97852C104.396 5.40039 104.213 5.92578 104.213 6.55469V10H103.24V3.57812H104.043L104.154 4.76758H104.201C104.439 4.34961 104.727 4.02734 105.062 3.80078C105.398 3.57422 105.768 3.46094 106.17 3.46094ZM115.205 10L115.012 9.08594H114.965C114.645 9.48828 114.324 9.76172 114.004 9.90625C113.688 10.0469 113.291 10.1172 112.814 10.1172C112.178 10.1172 111.678 9.95312 111.314 9.625C110.955 9.29688 110.775 8.83008 110.775 8.22461C110.775 6.92773 111.812 6.24805 113.887 6.18555L114.977 6.15039V5.75195C114.977 5.24805 114.867 4.87695 114.648 4.63867C114.434 4.39648 114.088 4.27539 113.611 4.27539C113.076 4.27539 112.471 4.43945 111.795 4.76758L111.496 4.02344C111.812 3.85156 112.158 3.7168 112.533 3.61914C112.912 3.52148 113.291 3.47266 113.67 3.47266C114.436 3.47266 115.002 3.64258 115.369 3.98242C115.74 4.32227 115.926 4.86719 115.926 5.61719V10H115.205ZM113.008 9.31445C113.613 9.31445 114.088 9.14844 114.432 8.81641C114.779 8.48438 114.953 8.01953 114.953 7.42188V6.8418L113.98 6.88281C113.207 6.91016 112.648 7.03125 112.305 7.24609C111.965 7.45703 111.795 7.78711 111.795 8.23633C111.795 8.58789 111.9 8.85547 112.111 9.03906C112.326 9.22266 112.625 9.31445 113.008 9.31445ZM123.191 3.57812V4.19336L122.002 4.33398C122.111 4.4707 122.209 4.65039 122.295 4.87305C122.381 5.0918 122.424 5.33984 122.424 5.61719C122.424 6.24609 122.209 6.74805 121.779 7.12305C121.35 7.49805 120.76 7.68555 120.01 7.68555C119.818 7.68555 119.639 7.66992 119.471 7.63867C119.057 7.85742 118.85 8.13281 118.85 8.46484C118.85 8.64062 118.922 8.77148 119.066 8.85742C119.211 8.93945 119.459 8.98047 119.811 8.98047H120.947C121.643 8.98047 122.176 9.12695 122.547 9.41992C122.922 9.71289 123.109 10.1387 123.109 10.6973C123.109 11.4082 122.824 11.9492 122.254 12.3203C121.684 12.6953 120.852 12.8828 119.758 12.8828C118.918 12.8828 118.27 12.7266 117.812 12.4141C117.359 12.1016 117.133 11.6602 117.133 11.0898C117.133 10.6992 117.258 10.3613 117.508 10.0762C117.758 9.79102 118.109 9.59766 118.562 9.49609C118.398 9.42188 118.26 9.30664 118.146 9.15039C118.037 8.99414 117.982 8.8125 117.982 8.60547C117.982 8.37109 118.045 8.16602 118.17 7.99023C118.295 7.81445 118.492 7.64453 118.762 7.48047C118.43 7.34375 118.158 7.11133 117.947 6.7832C117.74 6.45508 117.637 6.08008 117.637 5.6582C117.637 4.95508 117.848 4.41406 118.27 4.03516C118.691 3.65234 119.289 3.46094 120.062 3.46094C120.398 3.46094 120.701 3.5 120.971 3.57812H123.191ZM118.07 11.0781C118.07 11.4258 118.217 11.6895 118.51 11.8691C118.803 12.0488 119.223 12.1387 119.77 12.1387C120.586 12.1387 121.189 12.0156 121.58 11.7695C121.975 11.5273 122.172 11.1973 122.172 10.7793C122.172 10.4316 122.064 10.1895 121.85 10.0527C121.635 9.91992 121.23 9.85352 120.637 9.85352H119.471C119.029 9.85352 118.686 9.95898 118.439 10.1699C118.193 10.3809 118.07 10.6836 118.07 11.0781ZM118.598 5.63477C118.598 6.08398 118.725 6.42383 118.979 6.6543C119.232 6.88477 119.586 7 120.039 7C120.988 7 121.463 6.53906 121.463 5.61719C121.463 4.65234 120.982 4.16992 120.021 4.16992C119.564 4.16992 119.213 4.29297 118.967 4.53906C118.721 4.78516 118.598 5.15039 118.598 5.63477ZM127.439 3.46094C127.725 3.46094 127.98 3.48438 128.207 3.53125L128.072 4.43359C127.807 4.375 127.572 4.3457 127.369 4.3457C126.85 4.3457 126.404 4.55664 126.033 4.97852C125.666 5.40039 125.482 5.92578 125.482 6.55469V10H124.51V3.57812H125.312L125.424 4.76758H125.471C125.709 4.34961 125.996 4.02734 126.332 3.80078C126.668 3.57422 127.037 3.46094 127.439 3.46094ZM132.121 10.1172C131.172 10.1172 130.422 9.82812 129.871 9.25C129.324 8.67188 129.051 7.86914 129.051 6.8418C129.051 5.80664 129.305 4.98438 129.812 4.375C130.324 3.76562 131.01 3.46094 131.869 3.46094C132.674 3.46094 133.311 3.72656 133.779 4.25781C134.248 4.78516 134.482 5.48242 134.482 6.34961V6.96484H130.059C130.078 7.71875 130.268 8.29102 130.627 8.68164C130.99 9.07227 131.5 9.26758 132.156 9.26758C132.848 9.26758 133.531 9.12305 134.207 8.83398V9.70117C133.863 9.84961 133.537 9.95508 133.229 10.0176C132.924 10.084 132.555 10.1172 132.121 10.1172ZM131.857 4.27539C131.342 4.27539 130.93 4.44336 130.621 4.7793C130.316 5.11523 130.137 5.58008 130.082 6.17383H133.439C133.439 5.56055 133.303 5.0918 133.029 4.76758C132.756 4.43945 132.365 4.27539 131.857 4.27539ZM138.859 10.1172C137.91 10.1172 137.16 9.82812 136.609 9.25C136.062 8.67188 135.789 7.86914 135.789 6.8418C135.789 5.80664 136.043 4.98438 136.551 4.375C137.062 3.76562 137.748 3.46094 138.607 3.46094C139.412 3.46094 140.049 3.72656 140.518 4.25781C140.986 4.78516 141.221 5.48242 141.221 6.34961V6.96484H136.797C136.816 7.71875 137.006 8.29102 137.365 8.68164C137.729 9.07227 138.238 9.26758 138.895 9.26758C139.586 9.26758 140.27 9.12305 140.945 8.83398V9.70117C140.602 9.84961 140.275 9.95508 139.967 10.0176C139.662 10.084 139.293 10.1172 138.859 10.1172ZM138.596 4.27539C138.08 4.27539 137.668 4.44336 137.359 4.7793C137.055 5.11523 136.875 5.58008 136.82 6.17383H140.178C140.178 5.56055 140.041 5.0918 139.768 4.76758C139.494 4.43945 139.104 4.27539 138.596 4.27539ZM148.076 9.31445C148.248 9.31445 148.414 9.30273 148.574 9.2793C148.734 9.25195 148.861 9.22461 148.955 9.19727V9.94141C148.85 9.99219 148.693 10.0332 148.486 10.0645C148.283 10.0996 148.1 10.1172 147.936 10.1172C146.693 10.1172 146.072 9.46289 146.072 8.1543V4.33398H145.152V3.86523L146.072 3.46094L146.482 2.08984H147.045V3.57812H148.908V4.33398H147.045V8.11328C147.045 8.5 147.137 8.79688 147.32 9.00391C147.504 9.21094 147.756 9.31445 148.076 9.31445ZM155.787 6.7832C155.787 7.83008 155.523 8.64844 154.996 9.23828C154.469 9.82422 153.74 10.1172 152.811 10.1172C152.236 10.1172 151.727 9.98242 151.281 9.71289C150.836 9.44336 150.492 9.05664 150.25 8.55273C150.008 8.04883 149.887 7.45898 149.887 6.7832C149.887 5.73633 150.148 4.92188 150.672 4.33984C151.195 3.75391 151.922 3.46094 152.852 3.46094C153.75 3.46094 154.463 3.75977 154.99 4.35742C155.521 4.95508 155.787 5.76367 155.787 6.7832ZM150.895 6.7832C150.895 7.60352 151.059 8.22852 151.387 8.6582C151.715 9.08789 152.197 9.30273 152.834 9.30273C153.471 9.30273 153.953 9.08984 154.281 8.66406C154.613 8.23438 154.779 7.60742 154.779 6.7832C154.779 5.9668 154.613 5.34766 154.281 4.92578C153.953 4.5 153.467 4.28711 152.822 4.28711C152.186 4.28711 151.705 4.49609 151.381 4.91406C151.057 5.33203 150.895 5.95508 150.895 6.7832ZM166.158 6.7832C166.158 7.83008 165.895 8.64844 165.367 9.23828C164.84 9.82422 164.111 10.1172 163.182 10.1172C162.607 10.1172 162.098 9.98242 161.652 9.71289C161.207 9.44336 160.863 9.05664 160.621 8.55273C160.379 8.04883 160.258 7.45898 160.258 6.7832C160.258 5.73633 160.52 4.92188 161.043 4.33984C161.566 3.75391 162.293 3.46094 163.223 3.46094C164.121 3.46094 164.834 3.75977 165.361 4.35742C165.893 4.95508 166.158 5.76367 166.158 6.7832ZM161.266 6.7832C161.266 7.60352 161.43 8.22852 161.758 8.6582C162.086 9.08789 162.568 9.30273 163.205 9.30273C163.842 9.30273 164.324 9.08984 164.652 8.66406C164.984 8.23438 165.15 7.60742 165.15 6.7832C165.15 5.9668 164.984 5.34766 164.652 4.92578C164.324 4.5 163.838 4.28711 163.193 4.28711C162.557 4.28711 162.076 4.49609 161.752 4.91406C161.428 5.33203 161.266 5.95508 161.266 6.7832ZM168.783 3.57812V7.74414C168.783 8.26758 168.902 8.6582 169.141 8.91602C169.379 9.17383 169.752 9.30273 170.26 9.30273C170.932 9.30273 171.422 9.11914 171.73 8.75195C172.043 8.38477 172.199 7.78516 172.199 6.95312V3.57812H173.172V10H172.369L172.229 9.13867H172.176C171.977 9.45508 171.699 9.69727 171.344 9.86523C170.992 10.0332 170.59 10.1172 170.137 10.1172C169.355 10.1172 168.77 9.93164 168.379 9.56055C167.992 9.18945 167.799 8.5957 167.799 7.7793V3.57812H168.783ZM178.17 3.46094C178.455 3.46094 178.711 3.48438 178.938 3.53125L178.803 4.43359C178.537 4.375 178.303 4.3457 178.1 4.3457C177.58 4.3457 177.135 4.55664 176.764 4.97852C176.396 5.40039 176.213 5.92578 176.213 6.55469V10H175.24V3.57812H176.043L176.154 4.76758H176.201C176.439 4.34961 176.727 4.02734 177.062 3.80078C177.398 3.57422 177.768 3.46094 178.17 3.46094Z" fill="#677B8A"/>
<path d="M189.027 4.02344C189.027 4.91797 188.734 5.60352 188.148 6.08008C187.562 6.55664 186.729 6.79492 185.646 6.79492H184.756V10H183.355V1.43359H185.822C186.893 1.43359 187.693 1.65234 188.225 2.08984C188.76 2.52734 189.027 3.17188 189.027 4.02344ZM184.756 5.61719H185.5C186.219 5.61719 186.746 5.49219 187.082 5.24219C187.418 4.99219 187.586 4.60156 187.586 4.07031C187.586 3.57812 187.436 3.21094 187.135 2.96875C186.834 2.72656 186.365 2.60547 185.729 2.60547H184.756V5.61719ZM193.879 3.40234C194.156 3.40234 194.385 3.42188 194.564 3.46094L194.43 4.74414C194.234 4.69727 194.031 4.67383 193.82 4.67383C193.27 4.67383 192.822 4.85352 192.479 5.21289C192.139 5.57227 191.969 6.03906 191.969 6.61328V10H190.592V3.51953H191.67L191.852 4.66211H191.922C192.137 4.27539 192.416 3.96875 192.76 3.74219C193.107 3.51562 193.48 3.40234 193.879 3.40234ZM197.148 10H195.771V3.51953H197.148V10ZM195.689 1.80273C195.689 1.55664 195.756 1.36719 195.889 1.23438C196.025 1.10156 196.219 1.03516 196.469 1.03516C196.711 1.03516 196.898 1.10156 197.031 1.23438C197.168 1.36719 197.236 1.55664 197.236 1.80273C197.236 2.03711 197.168 2.22266 197.031 2.35938C196.898 2.49219 196.711 2.55859 196.469 2.55859C196.219 2.55859 196.025 2.49219 195.889 2.35938C195.756 2.22266 195.689 2.03711 195.689 1.80273ZM200.6 10L198.139 3.51953H199.592L200.91 7.28711C201.137 7.91992 201.273 8.43164 201.32 8.82227H201.367C201.402 8.54102 201.539 8.0293 201.777 7.28711L203.096 3.51953H204.561L202.088 10H200.6ZM209.6 10L209.324 9.09766H209.277C208.965 9.49219 208.65 9.76172 208.334 9.90625C208.018 10.0469 207.611 10.1172 207.115 10.1172C206.479 10.1172 205.98 9.94531 205.621 9.60156C205.266 9.25781 205.088 8.77148 205.088 8.14258C205.088 7.47461 205.336 6.9707 205.832 6.63086C206.328 6.29102 207.084 6.10547 208.1 6.07422L209.219 6.03906V5.69336C209.219 5.2793 209.121 4.9707 208.926 4.76758C208.734 4.56055 208.436 4.45703 208.029 4.45703C207.697 4.45703 207.379 4.50586 207.074 4.60352C206.77 4.70117 206.477 4.81641 206.195 4.94922L205.75 3.96484C206.102 3.78125 206.486 3.64258 206.904 3.54883C207.322 3.45117 207.717 3.40234 208.088 3.40234C208.912 3.40234 209.533 3.58203 209.951 3.94141C210.373 4.30078 210.584 4.86523 210.584 5.63477V10H209.6ZM207.549 9.0625C208.049 9.0625 208.449 8.92383 208.75 8.64648C209.055 8.36523 209.207 7.97266 209.207 7.46875V6.90625L208.375 6.94141C207.727 6.96484 207.254 7.07422 206.957 7.26953C206.664 7.46094 206.518 7.75586 206.518 8.1543C206.518 8.44336 206.604 8.66797 206.775 8.82812C206.947 8.98438 207.205 9.0625 207.549 9.0625ZM215.119 10.1172C214.139 10.1172 213.393 9.83203 212.881 9.26172C212.373 8.6875 212.119 7.86523 212.119 6.79492C212.119 5.70508 212.385 4.86719 212.916 4.28125C213.451 3.69531 214.223 3.40234 215.23 3.40234C215.914 3.40234 216.529 3.5293 217.076 3.7832L216.66 4.89062C216.078 4.66406 215.598 4.55078 215.219 4.55078C214.098 4.55078 213.537 5.29492 213.537 6.7832C213.537 7.50977 213.676 8.05664 213.953 8.42383C214.234 8.78711 214.645 8.96875 215.184 8.96875C215.797 8.96875 216.377 8.81641 216.924 8.51172V9.71289C216.678 9.85742 216.414 9.96094 216.133 10.0234C215.855 10.0859 215.518 10.1172 215.119 10.1172ZM217.463 3.51953H218.963L220.281 7.19336C220.48 7.7168 220.613 8.20898 220.68 8.66992H220.727C220.762 8.45508 220.826 8.19531 220.92 7.89062C221.014 7.58203 221.51 6.125 222.408 3.51953H223.896L221.125 10.8613C220.621 12.209 219.781 12.8828 218.605 12.8828C218.301 12.8828 218.004 12.8496 217.715 12.7832V11.6934C217.922 11.7402 218.158 11.7637 218.424 11.7637C219.088 11.7637 219.555 11.3789 219.824 10.6094L220.064 10L217.463 3.51953ZM233.816 4.02344C233.816 4.91797 233.523 5.60352 232.938 6.08008C232.352 6.55664 231.518 6.79492 230.436 6.79492H229.545V10H228.145V1.43359H230.611C231.682 1.43359 232.482 1.65234 233.014 2.08984C233.549 2.52734 233.816 3.17188 233.816 4.02344ZM229.545 5.61719H230.289C231.008 5.61719 231.535 5.49219 231.871 5.24219C232.207 4.99219 232.375 4.60156 232.375 4.07031C232.375 3.57812 232.225 3.21094 231.924 2.96875C231.623 2.72656 231.154 2.60547 230.518 2.60547H229.545V5.61719ZM241.129 6.74805C241.129 7.80664 240.857 8.63281 240.314 9.22656C239.771 9.82031 239.016 10.1172 238.047 10.1172C237.441 10.1172 236.906 9.98047 236.441 9.70703C235.977 9.43359 235.619 9.04102 235.369 8.5293C235.119 8.01758 234.994 7.42383 234.994 6.74805C234.994 5.69727 235.264 4.87695 235.803 4.28711C236.342 3.69727 237.102 3.40234 238.082 3.40234C239.02 3.40234 239.762 3.70508 240.309 4.31055C240.855 4.91211 241.129 5.72461 241.129 6.74805ZM236.412 6.74805C236.412 8.24414 236.965 8.99219 238.07 8.99219C239.164 8.99219 239.711 8.24414 239.711 6.74805C239.711 5.26758 239.16 4.52734 238.059 4.52734C237.48 4.52734 237.061 4.71875 236.799 5.10156C236.541 5.48438 236.412 6.0332 236.412 6.74805ZM244.094 10H242.717V0.882812H244.094V10ZM247.445 10H246.068V3.51953H247.445V10ZM245.986 1.80273C245.986 1.55664 246.053 1.36719 246.186 1.23438C246.322 1.10156 246.516 1.03516 246.766 1.03516C247.008 1.03516 247.195 1.10156 247.328 1.23438C247.465 1.36719 247.533 1.55664 247.533 1.80273C247.533 2.03711 247.465 2.22266 247.328 2.35938C247.195 2.49219 247.008 2.55859 246.766 2.55859C246.516 2.55859 246.322 2.49219 246.186 2.35938C246.053 2.22266 245.986 2.03711 245.986 1.80273ZM252.033 10.1172C251.053 10.1172 250.307 9.83203 249.795 9.26172C249.287 8.6875 249.033 7.86523 249.033 6.79492C249.033 5.70508 249.299 4.86719 249.83 4.28125C250.365 3.69531 251.137 3.40234 252.145 3.40234C252.828 3.40234 253.443 3.5293 253.99 3.7832L253.574 4.89062C252.992 4.66406 252.512 4.55078 252.133 4.55078C251.012 4.55078 250.451 5.29492 250.451 6.7832C250.451 7.50977 250.59 8.05664 250.867 8.42383C251.148 8.78711 251.559 8.96875 252.098 8.96875C252.711 8.96875 253.291 8.81641 253.838 8.51172V9.71289C253.592 9.85742 253.328 9.96094 253.047 10.0234C252.77 10.0859 252.432 10.1172 252.033 10.1172ZM254.377 3.51953H255.877L257.195 7.19336C257.395 7.7168 257.527 8.20898 257.594 8.66992H257.641C257.676 8.45508 257.74 8.19531 257.834 7.89062C257.928 7.58203 258.424 6.125 259.322 3.51953H260.811L258.039 10.8613C257.535 12.209 256.695 12.8828 255.52 12.8828C255.215 12.8828 254.918 12.8496 254.629 12.7832V11.6934C254.836 11.7402 255.072 11.7637 255.338 11.7637C256.002 11.7637 256.469 11.3789 256.738 10.6094L256.979 10L254.377 3.51953Z" fill="#FA7327"/>
<path d="M182.225 11.2012H260.811V11.7988H182.225V11.2012Z" fill="#FA7327"/>
</svg>
