<svg width="24" height="24" viewBox="0 0 24 24" fill="none" xmlns="http://www.w3.org/2000/svg">
<g clip-path="url(#clip0_361_141)">
<path d="M23.1154 8.31696C22.3501 8.66963 21.5834 9.02163 20.8154 9.37296C20.1744 9.67296 19.5315 9.96195 18.8904 10.258L16.9294 11.158L13.7044 12.639C13.0484 12.939 12.3814 13.228 11.7324 13.544C11.7226 13.5494 11.7122 13.5537 11.7014 13.557H12.2904C11.7434 13.305 11.1984 13.057 10.6504 12.805L7.43745 11.327C6.68745 10.9816 5.93778 10.6373 5.18845 10.294C4.65445 10.048 4.11945 9.80396 3.58245 9.55696C2.69778 9.1523 1.81411 8.74662 0.931446 8.33995L0.877445 8.31696V9.32596L2.01345 8.80497L4.74245 7.55196C5.84245 7.04596 6.94245 6.54096 8.04245 6.03696C8.98911 5.60096 9.93678 5.16762 10.8854 4.73696C11.3474 4.52396 11.8164 4.32396 12.2734 4.09896L12.2944 4.09096H11.7054L12.8414 4.61196L15.5704 5.86496C16.6705 6.37096 17.7704 6.87596 18.8704 7.37996C19.8171 7.81596 20.7648 8.2493 21.7134 8.67997C22.1754 8.89296 22.6374 9.10797 23.1014 9.31797L23.1224 9.32596C23.2562 9.4042 23.4156 9.42609 23.5656 9.3868C23.6398 9.36734 23.7095 9.33345 23.7707 9.28707C23.8318 9.24068 23.8832 9.18271 23.9219 9.11646C23.9607 9.05021 23.986 8.97698 23.9964 8.90094C24.0069 8.82491 24.0022 8.74755 23.9828 8.67331C23.9633 8.59907 23.9294 8.52939 23.8831 8.46825C23.8367 8.4071 23.7787 8.3557 23.7124 8.31696L22.5684 7.78997L19.8264 6.52896C18.7264 6.02296 17.6264 5.51796 16.5264 5.01396L13.6754 3.70395C13.2214 3.49595 12.7704 3.28395 12.3164 3.07895C12.198 3.01547 12.0631 2.98933 11.9294 3.00395C11.8479 3.0166 11.7691 3.04298 11.6964 3.08196C11.6474 3.10496 11.5964 3.12896 11.5464 3.14896L10.8464 3.47097L8.26245 4.65895L4.96745 6.17195L2.00445 7.53395L0.380447 8.28096L0.302448 8.31696C0.215245 8.36916 0.14306 8.44308 0.0929413 8.5315C0.0428223 8.61992 0.0164795 8.71982 0.0164795 8.82146C0.0164795 8.9231 0.0428223 9.02299 0.0929413 9.11141C0.14306 9.19983 0.215245 9.27375 0.302448 9.32596C1.07311 9.67863 1.84278 10.0323 2.61145 10.387C3.24945 10.68 3.89045 10.973 4.52845 11.269L6.50745 12.18C7.58945 12.678 8.67211 13.1753 9.75545 13.672C10.4014 13.972 11.0444 14.272 11.6934 14.562C11.8144 14.6259 11.9512 14.6536 12.0874 14.642C12.1724 14.6265 12.2547 14.5985 12.3314 14.559L12.5594 14.459L13.5764 13.992L16.7414 12.537L19.2654 11.377C19.7194 11.167 20.1764 10.959 20.6304 10.749L23.5184 9.42096C23.5834 9.38996 23.6504 9.36096 23.7184 9.32996C23.8517 9.25113 23.9486 9.1229 23.9879 8.97312C24.0272 8.82333 24.0058 8.66409 23.9284 8.52996C23.8452 8.39793 23.715 8.30248 23.564 8.26293C23.413 8.22338 23.2527 8.24269 23.1154 8.31696Z" fill="#2C9085"/>
<path d="M18.6305 10.748V17.52C18.6305 17.746 18.6305 17.971 18.6305 18.197C18.6305 18.239 18.6305 18.283 18.6255 18.324C18.6191 18.3529 18.6164 18.3825 18.6175 18.412C18.6175 18.402 18.6435 18.264 18.6225 18.363C18.6133 18.4146 18.6012 18.4657 18.5865 18.516C18.5591 18.574 18.539 18.6351 18.5265 18.698C18.4888 18.8065 18.4949 18.9255 18.5436 19.0296C18.5923 19.1337 18.6797 19.2146 18.7872 19.2552C18.8946 19.2959 19.0137 19.293 19.1191 19.2471C19.2244 19.2012 19.3077 19.1161 19.3512 19.0097C19.3947 18.9034 19.395 18.7843 19.352 18.6777C19.309 18.5712 19.2261 18.4856 19.121 18.4392C19.0159 18.3929 18.8968 18.3894 18.7891 18.4295C18.6814 18.4696 18.5937 18.5501 18.5445 18.654L18.5135 18.716C18.4879 18.7671 18.4592 18.8165 18.4275 18.864C18.3991 18.8997 18.3731 18.9371 18.3495 18.976C18.3935 18.876 18.4115 18.898 18.3785 18.937C18.3455 18.976 18.3345 18.989 18.3115 19.012C18.2725 19.054 18.2315 19.092 18.1895 19.129C18.1765 19.142 18.1455 19.16 18.1375 19.173C18.1765 19.108 18.2255 19.108 18.1735 19.144C18.0775 19.2086 17.9773 19.2668 17.8735 19.318C17.7875 19.362 17.9075 19.3 17.9175 19.3C17.8899 19.307 17.8631 19.3167 17.8375 19.329C17.7885 19.345 17.7375 19.36 17.6875 19.373C17.6408 19.3769 17.5948 19.3867 17.5505 19.402C17.6335 19.355 17.6625 19.389 17.5815 19.397L17.4725 19.405C16.9535 19.421 16.4325 19.405 15.9135 19.405H6.6625C6.5955 19.405 6.5275 19.405 6.4625 19.405L6.3895 19.4C6.2895 19.392 6.4315 19.4 6.4385 19.408C6.38311 19.3893 6.32572 19.3772 6.26751 19.372C6.22351 19.359 6.1795 19.346 6.1355 19.33C6.11488 19.3197 6.09304 19.3119 6.0705 19.307C6.1565 19.343 6.17051 19.351 6.11451 19.325L6.0835 19.309C5.99141 19.2629 5.90284 19.2101 5.8185 19.151C5.7185 19.086 5.8965 19.226 5.8415 19.169C5.82101 19.1496 5.7993 19.1316 5.77649 19.115C5.73449 19.076 5.69351 19.037 5.65751 18.996C5.64151 18.98 5.6285 18.962 5.6135 18.944C5.5335 18.856 5.6735 19.035 5.6315 18.967C5.6025 18.923 5.57151 18.884 5.54551 18.84C5.51951 18.796 5.4985 18.762 5.4785 18.721C5.4655 18.695 5.45549 18.669 5.44249 18.643C5.41349 18.594 5.4945 18.778 5.4505 18.653C5.41731 18.5549 5.39058 18.4546 5.3705 18.353C5.3525 18.273 5.38349 18.509 5.37549 18.384C5.37243 18.3598 5.37077 18.3354 5.3705 18.311C5.3705 18.275 5.3705 18.238 5.3705 18.202V10.752C5.0775 10.921 4.78451 11.089 4.49151 11.252L6.96351 12.388L10.8495 14.173C11.1325 14.303 11.4155 14.435 11.7005 14.565C11.7943 14.6136 11.8984 14.6389 12.004 14.6389C12.1096 14.6389 12.2137 14.6136 12.3075 14.565C12.3385 14.552 12.3675 14.536 12.3985 14.523L12.8365 14.323L16.5615 12.611C17.5295 12.165 18.4982 11.7197 19.4675 11.275C19.4827 11.2669 19.4984 11.2599 19.5145 11.254C19.6478 11.1752 19.7446 11.0469 19.7839 10.8972C19.8233 10.7474 19.8019 10.5881 19.7245 10.454C19.6435 10.3231 19.5154 10.2282 19.3665 10.1891C19.2176 10.1501 19.0593 10.1697 18.9245 10.244L16.4725 11.37L12.5965 13.152L11.7045 13.562H12.2935L9.8415 12.436L5.9655 10.654L5.07351 10.244C4.98361 10.1934 4.88217 10.1667 4.779 10.1667C4.67582 10.1667 4.57439 10.1934 4.4845 10.244C4.39764 10.2957 4.32551 10.3688 4.27507 10.4563C4.22464 10.5439 4.19757 10.643 4.19649 10.744V17.589C4.19649 17.848 4.1785 18.116 4.2045 18.375C4.25251 18.9334 4.4908 19.4583 4.87951 19.862C5.27167 20.2533 5.78642 20.498 6.3375 20.555C6.53701 20.572 6.73736 20.5774 6.9375 20.571H17.3535C17.971 20.5898 18.5715 20.3674 19.0277 19.9509C19.484 19.5344 19.7601 18.9566 19.7975 18.34C19.8055 18.24 19.8025 18.14 19.8025 18.04V10.74C19.8009 10.5856 19.7389 10.438 19.6297 10.3288C19.5205 10.2196 19.3729 10.1576 19.2185 10.156C19.0628 10.1591 18.9145 10.2226 18.8048 10.3331C18.695 10.4435 18.6325 10.5923 18.6305 10.748Z" fill="#2C9085"/>
<path d="M1.1675 15.1749V8.82092C1.17076 8.74226 1.15808 8.66375 1.13022 8.59012C1.10237 8.51649 1.05991 8.44926 1.00541 8.39246C0.950902 8.33565 0.885475 8.29043 0.813057 8.25955C0.740639 8.22867 0.662726 8.21277 0.584 8.21277C0.505274 8.21277 0.42736 8.22867 0.354943 8.25955C0.282525 8.29043 0.217098 8.33565 0.162594 8.39246C0.10809 8.44926 0.0656365 8.51649 0.037781 8.59012C0.00992546 8.66375 -0.00275705 8.74226 0.000499962 8.82092V15.1749C-0.00275705 15.2536 0.00992546 15.3321 0.037781 15.4057C0.0656365 15.4794 0.10809 15.5466 0.162594 15.6034C0.217098 15.6602 0.282525 15.7054 0.354943 15.7363C0.42736 15.7672 0.505274 15.7831 0.584 15.7831C0.662726 15.7831 0.740639 15.7672 0.813057 15.7363C0.885475 15.7054 0.950902 15.6602 1.00541 15.6034C1.05991 15.5466 1.10237 15.4794 1.13022 15.4057C1.15808 15.3321 1.17076 15.2536 1.1675 15.1749Z" fill="#2C9085"/>
</g>
<defs>
<clipPath id="clip0_361_141">
<rect width="24" height="24" fill="white"/>
</clipPath>
</defs>
</svg>
