<svg width="24" height="24" viewBox="0 0 24 24" fill="none" xmlns="http://www.w3.org/2000/svg">
<path fill-rule="evenodd" clip-rule="evenodd" d="M21.9996 8.14513C22.0124 7.79637 21.9533 7.44871 21.8259 7.1238C21.6985 6.79889 21.5056 6.50368 21.2592 6.25658C21.0127 6.00948 20.718 5.81577 20.3935 5.68752C20.0689 5.55927 19.7214 5.49923 19.3726 5.51113C18.3336 5.55213 17.2926 5.52113 16.2526 5.51713C16.0916 5.5492 15.9246 5.52814 15.7766 5.45713C15.7434 5.12488 15.735 4.79062 15.7516 4.45713C15.7771 4.26141 15.7574 4.06244 15.6938 3.87556C15.6303 3.68869 15.5247 3.51889 15.3852 3.37928C15.2457 3.23966 15.076 3.13395 14.8891 3.07029C14.7023 3.00664 14.5033 2.98674 14.3076 3.01213C12.7696 3.0068 11.2313 3.0068 9.69259 3.01213C9.49787 2.98518 9.29956 3.00327 9.11292 3.065C8.92629 3.12673 8.7563 3.23046 8.61605 3.3682C8.4758 3.50594 8.36902 3.67402 8.30393 3.85951C8.23883 4.045 8.21717 4.24295 8.24059 4.43813C8.25499 4.77904 8.24564 5.12053 8.21259 5.46013C8.0652 5.52064 7.90423 5.54033 7.74659 5.51713C6.70659 5.51713 5.66459 5.55313 4.62559 5.51013C4.28093 5.4971 3.93725 5.55468 3.61565 5.67933C3.29406 5.80398 3.00135 5.99307 2.75551 6.23498C2.50966 6.47689 2.31588 6.76651 2.18606 7.08605C2.05624 7.40559 1.99312 7.74831 2.00059 8.09313C2.00459 11.7851 2.00459 15.4775 2.00059 19.1701C1.99476 19.5112 2.05769 19.8499 2.18562 20.1662C2.31355 20.4824 2.50387 20.7696 2.74521 21.0107C2.98656 21.2517 3.27399 21.4417 3.59035 21.5693C3.90672 21.6968 4.24554 21.7594 4.58659 21.7531C9.52459 21.7365 14.4623 21.7365 19.3996 21.7531C19.7444 21.76 20.0869 21.6969 20.4066 21.5676C20.7263 21.4383 21.0164 21.2455 21.2595 21.0009C21.5025 20.7562 21.6934 20.4649 21.8206 20.1444C21.9478 19.8238 22.0087 19.4809 21.9996 19.1361C21.9916 15.4715 21.9916 11.8078 21.9996 8.14513ZM10.5416 4.26313C11.5416 4.29913 12.5346 4.29413 13.5306 4.26313C14.4396 4.23613 14.5306 4.61813 14.4886 5.29313C14.4801 5.36053 14.4674 5.42733 14.4506 5.49313H9.56659C9.54359 5.45513 9.53159 5.44313 9.53059 5.43113C9.42859 4.57213 9.56559 4.22813 10.5416 4.26313ZM20.7416 19.0761C20.7562 19.2593 20.7342 19.4436 20.6769 19.6182C20.6196 19.7928 20.528 19.9543 20.4076 20.0931C20.3054 20.2089 20.1813 20.3033 20.0424 20.3709C19.9036 20.4386 19.7528 20.4781 19.5986 20.4871C19.4376 20.4951 19.2766 20.4941 19.1156 20.4941H4.87259C4.75559 20.4941 4.63759 20.4941 4.52059 20.4941C4.35475 20.5017 4.18914 20.4748 4.03423 20.4151C3.87931 20.3554 3.73848 20.2642 3.62062 20.1473C3.50276 20.0304 3.41044 19.8903 3.3495 19.7359C3.28856 19.5814 3.26033 19.416 3.26659 19.2501C3.25559 17.0371 3.26659 14.8241 3.26659 12.6111C3.27192 12.5439 3.28161 12.4771 3.29559 12.4111H9.55359C9.45797 12.8461 9.47711 13.2984 9.60913 13.7238C9.74114 14.1491 9.9815 14.5328 10.3066 14.8371C10.5638 15.0723 10.8672 15.2513 11.1974 15.3626C11.5276 15.4739 11.8775 15.5151 12.2245 15.4836C12.5716 15.4521 12.9083 15.3485 13.2131 15.1795C13.5178 15.0105 13.784 14.7798 13.9946 14.5021C14.2099 14.2142 14.3612 13.8836 14.4387 13.5326C14.5161 13.1815 14.5178 12.8179 14.4436 12.4661C14.7586 12.3661 19.8436 12.3241 20.6736 12.4121C20.7676 12.5121 20.7416 12.6301 20.7426 12.7431C20.7433 14.8545 20.7429 16.9651 20.7416 19.0751V19.0761ZM10.9356 12.3851C11.5806 12.3851 12.2216 12.3921 12.8616 12.3851C13.0986 12.3851 13.1566 12.5321 13.2026 12.7061C13.2657 12.9556 13.25 13.2185 13.1574 13.4587C13.0649 13.6988 12.9002 13.9044 12.6859 14.047C12.4717 14.1896 12.2185 14.2622 11.9613 14.2549C11.704 14.2476 11.4554 14.1607 11.2496 14.0061C11.0049 13.8233 10.8371 13.5558 10.779 13.2558C10.721 12.9559 10.7768 12.6461 10.9356 12.3851ZM20.7356 10.9411C20.7289 10.9957 20.7152 11.0492 20.6946 11.1001C20.3246 11.1521 3.78059 11.1581 3.30459 11.1001C3.25427 10.8792 3.24042 10.6515 3.26359 10.4261C3.25859 9.65013 3.28159 8.87313 3.25659 8.09713C3.25054 7.91845 3.2814 7.74044 3.34726 7.57423C3.41312 7.40802 3.51255 7.25718 3.63934 7.13114C3.76614 7.00509 3.91757 6.90656 4.08417 6.84169C4.25076 6.77682 4.42895 6.74702 4.60759 6.75413C9.54359 6.76813 14.4796 6.76013 19.4156 6.76413C19.5846 6.74984 19.7546 6.77115 19.9149 6.82671C20.0751 6.88226 20.2218 6.97082 20.3457 7.08665C20.4695 7.20248 20.5677 7.34301 20.6338 7.49916C20.6999 7.6553 20.7326 7.82359 20.7296 7.99313C20.7576 8.97713 20.7376 9.95913 20.7346 10.9401L20.7356 10.9411Z" fill="#2C9085"/>
</svg>
