<svg width="24" height="24" viewBox="0 0 24 24" fill="none" xmlns="http://www.w3.org/2000/svg">
<path d="M4.57229 9.44866C4.57092 8.46709 4.76384 7.49496 5.13993 6.5883C5.51601 5.68164 6.06783 4.85838 6.76357 4.16598C7.45931 3.47358 8.28522 2.92573 9.19368 2.55401C10.1021 2.18229 11.0752 1.99405 12.0567 2.00014C16.1525 2.03059 19.4285 5.43497 19.4285 9.54216V10.2763C19.4285 13.9816 20.2037 16.1317 20.8865 17.3069C20.9601 17.4324 20.9992 17.5752 21 17.7207C21.0008 17.8662 20.9632 18.0094 20.891 18.1357C20.8187 18.2621 20.7145 18.3671 20.5887 18.4403C20.463 18.5135 20.3201 18.5523 20.1746 18.5526H3.82541C3.67987 18.5523 3.53701 18.5135 3.41122 18.4403C3.28544 18.3671 3.18119 18.262 3.109 18.1356C3.0368 18.0092 2.99921 17.8661 3.00001 17.7205C3.00082 17.575 3.03999 17.4322 3.11358 17.3067C3.79672 16.1315 4.57228 13.9814 4.57228 10.2763L4.57229 9.44866Z" stroke="#677B8A" stroke-width="2" stroke-linecap="round" stroke-linejoin="round"/>
<path d="M8.68945 18.5527V19.3803C8.68945 20.2583 9.03824 21.1004 9.65909 21.7212C10.2799 22.3421 11.122 22.6909 12 22.6909C12.878 22.6909 13.7201 22.3421 14.3409 21.7212C14.9617 21.1004 15.3105 20.2583 15.3105 19.3803V18.5527" stroke="#677B8A" stroke-width="2" stroke-linecap="round" stroke-linejoin="round"/>
</svg>
