<svg width="329" height="18" viewBox="0 0 329 18" fill="none" xmlns="http://www.w3.org/2000/svg">
<path d="M162.352 5.185C160.027 5.185 158.707 6.925 158.707 9.19C158.707 11.485 160.042 13.18 162.262 13.18C164.617 13.18 165.892 11.395 165.892 9.16C165.892 6.775 164.497 5.185 162.352 5.185ZM162.292 6.4C163.642 6.4 164.392 7.495 164.392 9.19C164.392 10.87 163.642 11.965 162.322 11.965C161.017 11.965 160.222 10.81 160.222 9.175C160.222 7.465 160.942 6.4 162.292 6.4ZM167.552 13H169.022V9.37C169.022 7.405 170.012 6.67 171.572 6.64V5.185C170.297 5.215 169.412 5.875 169.022 6.88C169.022 6.205 169.007 5.575 168.977 5.365H167.537C167.537 5.815 167.552 6.43 167.552 7.435V13Z" fill="#677B8A"/>
<path fill-rule="evenodd" clip-rule="evenodd" d="M147 9.00005H0.972412V10H147V9.00005ZM182 10H328.027V9.00005H182V10Z" fill="#DBDBDB"/>
</svg>
