<svg width="24" height="24" viewBox="0 0 24 24" fill="none" xmlns="http://www.w3.org/2000/svg">
<g opacity="0.6">
<path d="M22.1 12C22.1 17.5781 17.5781 22.1 12 22.1C6.42192 22.1 1.9 17.5781 1.9 12C1.9 6.42192 6.42192 1.9 12 1.9C17.5781 1.9 22.1 6.42192 22.1 12Z" stroke="#677B8A" stroke-width="1.8" stroke-linecap="round" stroke-linejoin="round"/>
<path d="M15.6834 11.0833C15.6834 13.1176 14.0343 14.7667 12.0001 14.7667C9.96583 14.7667 8.31675 13.1176 8.31675 11.0833C8.31675 9.04908 9.96583 7.4 12.0001 7.4C14.0343 7.4 15.6834 9.04908 15.6834 11.0833Z" stroke="#677B8A" stroke-width="1.8" stroke-linecap="round" stroke-linejoin="round"/>
<mask id="path-3-inside-1_527_404" fill="white">
<path d="M4.64355 20.1783C5.33405 18.8207 6.38673 17.6807 7.68509 16.8844C8.98344 16.0881 10.4768 15.6667 11.9999 15.6667C13.523 15.6667 15.0164 16.0881 16.3147 16.8844C17.6131 17.6807 18.6658 18.8207 19.3563 20.1782"/>
</mask>
<path d="M3.03916 19.3622C2.58847 20.2483 2.94144 21.332 3.82752 21.7827C4.71361 22.2334 5.79727 21.8804 6.24795 20.9943L3.03916 19.3622ZM17.7519 20.9943C18.2025 21.8804 19.2862 22.2333 20.1723 21.7826C21.0584 21.332 21.4113 20.2483 20.9606 19.3622L17.7519 20.9943ZM6.24795 20.9943C6.78785 19.9328 7.61095 19.0414 8.62614 18.4188L6.74404 15.35C5.16252 16.3199 3.88024 17.7086 3.03916 19.3622L6.24795 20.9943ZM8.62614 18.4188C9.64132 17.7962 10.809 17.4667 11.9999 17.4667L11.9999 13.8667C10.1446 13.8667 8.32556 14.3801 6.74404 15.35L8.62614 18.4188ZM11.9999 17.4667C13.1908 17.4667 14.3585 17.7962 15.3737 18.4188L17.2558 15.35C15.6742 14.38 13.8552 13.8667 11.9999 13.8667L11.9999 17.4667ZM15.3737 18.4188C16.3889 19.0414 17.212 19.9328 17.7519 20.9943L20.9606 19.3622C20.1196 17.7086 18.8373 16.3199 17.2558 15.35L15.3737 18.4188Z" fill="#677B8A" mask="url(#path-3-inside-1_527_404)"/>
</g>
</svg>
