<svg width="15" height="17" viewBox="0 0 15 17" fill="none" xmlns="http://www.w3.org/2000/svg">
<path d="M7.49271 5.05098C6.81838 5.05098 6.15919 5.25817 5.5985 5.64633C5.03781 6.0345 4.60081 6.58622 4.34275 7.23172C4.0847 7.87722 4.01718 8.58751 4.14873 9.27276C4.28029 9.95802 4.60501 10.5875 5.08184 11.0815C5.55866 11.5756 6.16617 11.912 6.82755 12.0483C7.48893 12.1846 8.17446 12.1147 8.79746 11.8473C9.42047 11.5799 9.95295 11.1271 10.3276 10.5462C10.7022 9.96526 10.9022 9.28227 10.9022 8.58359C10.9014 7.64693 10.542 6.74886 9.90273 6.08654C9.26349 5.42422 8.39672 5.05178 7.49271 5.05098ZM7.49271 10.9074C7.04911 10.9074 6.61548 10.7711 6.24665 10.5158C5.87781 10.2604 5.59034 9.89751 5.42058 9.47288C5.25082 9.04826 5.20641 8.58101 5.29295 8.13023C5.37949 7.67945 5.5931 7.26538 5.90677 6.94038C6.22044 6.61539 6.62008 6.39406 7.05515 6.3044C7.49022 6.21473 7.94118 6.26075 8.35101 6.43664C8.76084 6.61252 9.11112 6.91038 9.35757 7.29253C9.60402 7.67468 9.73556 8.12397 9.73556 8.58359C9.73479 9.19966 9.49824 9.79028 9.07779 10.2259C8.65734 10.6615 8.08731 10.9066 7.49271 10.9074ZM9.53432 15.4584C9.58851 15.5146 9.63151 15.5812 9.66084 15.6546C9.69017 15.728 9.70526 15.8066 9.70526 15.886C9.70526 15.9654 9.69017 16.0441 9.66084 16.1174C9.63151 16.1908 9.58851 16.2575 9.53432 16.3136C9.48012 16.3698 9.41578 16.4143 9.34497 16.4447C9.27416 16.4751 9.19827 16.4907 9.12162 16.4907C9.04498 16.4907 8.96908 16.4751 8.89827 16.4447C8.82746 16.4143 8.76312 16.3698 8.70892 16.3136L7.49271 15.0625L6.27358 16.3257C6.16257 16.4387 6.01279 16.5014 5.85718 16.5C5.70157 16.4986 5.55287 16.4332 5.44381 16.3181C5.33474 16.2031 5.27423 16.0479 5.2756 15.8867C5.27697 15.7255 5.3401 15.5714 5.4511 15.4584L7.03772 13.8145C7.09748 13.7542 7.16901 13.7079 7.2475 13.6788C7.32599 13.6496 7.4096 13.6381 7.49271 13.6453C7.57651 13.6381 7.66081 13.6498 7.73985 13.6795C7.81888 13.7092 7.89078 13.7563 7.95061 13.8175L9.53432 15.4584ZM6.90939 3.5219V1.10438C6.90939 0.944089 6.97085 0.790362 7.08024 0.677019C7.18963 0.563676 7.338 0.5 7.49271 0.5C7.64741 0.5 7.79578 0.563676 7.90518 0.677019C8.01457 0.790362 8.07603 0.944089 8.07603 1.10438V3.5219C8.07603 3.68219 8.01457 3.83592 7.90518 3.94926C7.79578 4.06261 7.64741 4.12628 7.49271 4.12628C7.338 4.12628 7.18963 4.06261 7.08024 3.94926C6.97085 3.83592 6.90939 3.68219 6.90939 3.5219ZM2.62493 8.89484H0.583317C0.428612 8.89484 0.280243 8.83117 0.17085 8.71782C0.0614564 8.60448 0 8.45075 0 8.29046C0 8.13017 0.0614564 7.97644 0.17085 7.8631C0.280243 7.74976 0.428612 7.68608 0.583317 7.68608H2.63951C2.79421 7.68608 2.94258 7.74976 3.05198 7.8631C3.16137 7.97644 3.22283 8.13017 3.22283 8.29046C3.22283 8.45075 3.16137 8.60448 3.05198 8.71782C2.94258 8.83117 2.79421 8.89484 2.63951 8.89484H2.62493ZM15 8.29046C15 8.45075 14.9385 8.60448 14.8291 8.71782C14.7198 8.83117 14.5714 8.89484 14.4167 8.89484H12.3605C12.2058 8.89484 12.0574 8.83117 11.948 8.71782C11.8386 8.60448 11.7772 8.45075 11.7772 8.29046C11.7772 8.13017 11.8386 7.97644 11.948 7.8631C12.0574 7.74976 12.2058 7.68608 12.3605 7.68608H14.4167C14.5714 7.68608 14.7198 7.74976 14.8291 7.8631C14.9385 7.97644 15 8.13017 15 8.29046ZM2.18452 3.6458C2.07507 3.53239 2.01358 3.37858 2.01358 3.2182C2.01358 3.05782 2.07507 2.90401 2.18452 2.7906C2.29398 2.6772 2.44243 2.61348 2.59722 2.61348C2.75201 2.61348 2.90046 2.6772 3.00992 2.7906L4.60237 4.44056C4.68883 4.52433 4.74864 4.63338 4.77386 4.75321C4.79908 4.87304 4.78851 4.99798 4.74357 5.11144C4.69863 5.22491 4.62143 5.32152 4.52224 5.38844C4.42304 5.45537 4.30655 5.48944 4.18822 5.48614C4.03418 5.48626 3.88635 5.42326 3.77698 5.31087L2.18452 3.6458ZM12.8009 12.9351C12.8822 13.0198 12.9374 13.1276 12.9596 13.2447C12.9818 13.3619 12.97 13.4833 12.9257 13.5936C12.8814 13.7038 12.8065 13.798 12.7106 13.8642C12.6147 13.9304 12.502 13.9657 12.3867 13.9656C12.2327 13.9657 12.0849 13.9027 11.9755 13.7903L10.666 12.4365C10.5565 12.3231 10.495 12.1693 10.495 12.0089C10.495 11.8485 10.5565 11.6947 10.666 11.5813C10.7754 11.4679 10.9239 11.4042 11.0786 11.4042C11.2334 11.4042 11.3819 11.4679 11.4913 11.5813L12.8009 12.9351ZM10.383 5.29576C10.3288 5.23963 10.2858 5.17297 10.2564 5.0996C10.2271 5.02623 10.212 4.94758 10.212 4.86816C10.212 4.78873 10.2271 4.71009 10.2564 4.63672C10.2858 4.56335 10.3288 4.49669 10.383 4.44056L11.9755 2.7906C12.085 2.6772 12.2334 2.61348 12.3882 2.61348C12.543 2.61348 12.6914 2.6772 12.8009 2.7906C12.9103 2.90401 12.9718 3.05782 12.9718 3.2182C12.9718 3.37858 12.9103 3.53239 12.8009 3.6458L11.2084 5.29576C11.0991 5.40815 10.9512 5.47116 10.7972 5.47103C10.7204 5.47149 10.6443 5.45624 10.5733 5.42617C10.5022 5.39609 10.4375 5.35177 10.383 5.29576ZM4.31946 11.5783C4.3737 11.6344 4.41672 11.7011 4.44608 11.7744C4.47543 11.8478 4.49054 11.9265 4.49054 12.0059C4.49054 12.0853 4.47543 12.164 4.44608 12.2373C4.41672 12.3107 4.3737 12.3774 4.31946 12.4335L3.00992 13.7903C2.90055 13.9027 2.75272 13.9657 2.59868 13.9656C2.48342 13.9657 2.37071 13.9304 2.27479 13.8642C2.17887 13.798 2.10403 13.7038 2.05972 13.5936C2.01541 13.4833 2.00362 13.3619 2.02583 13.2447C2.04804 13.1276 2.10326 13.0198 2.18452 12.9351L3.49407 11.5783C3.54824 11.5221 3.61258 11.4775 3.68339 11.4471C3.7542 11.4167 3.83011 11.401 3.90677 11.401C3.98342 11.401 4.05933 11.4167 4.13014 11.4471C4.20096 11.4775 4.26529 11.5221 4.31946 11.5783Z" fill="#677B8A"/>
</svg>
