<svg width="16" height="15" viewBox="0 0 16 15" fill="none" xmlns="http://www.w3.org/2000/svg">
<path d="M7.54127 1.31465C7.71535 0.913213 8.28465 0.913211 8.45873 1.31465L8.91745 1.11573L8.45873 1.31465L9.75041 4.29338C9.96776 4.79461 10.4404 5.13803 10.9843 5.18986L14.2164 5.49784C14.652 5.53935 14.8279 6.08078 14.4999 6.37039L12.0661 8.51933C11.6566 8.88093 11.476 9.4366 11.5948 9.96986L12.3007 13.1389C12.3958 13.566 11.9352 13.9006 11.5584 13.6782L8.76259 12.0276C8.29213 11.7498 7.70787 11.7498 7.23741 12.0276L4.44157 13.6782C4.06478 13.9006 3.6042 13.566 3.69933 13.1389L4.40519 9.96986C4.52397 9.43659 4.34342 8.88093 3.93389 8.51933L1.5001 6.37039C1.1721 6.08078 1.34802 5.53934 1.78361 5.49784L5.0157 5.18986C5.55956 5.13803 6.03224 4.79461 6.24959 4.29338L7.54127 1.31465Z" stroke="#677B8A"/>
</svg>
