<svg width="13" height="9" viewBox="0 0 13 9" fill="none" xmlns="http://www.w3.org/2000/svg">
<path d="M11.0316 0.581998L8.784 2.2008V1.68C8.784 1.23444 8.607 0.80712 8.29194 0.492059C7.97688 0.176998 7.54956 0 7.104 0H1.68C1.23444 0 0.807122 0.176998 0.49206 0.492059C0.176999 0.80712 0 1.23444 0 1.68V6.894C0 7.33956 0.176999 7.76688 0.49206 8.08194C0.807122 8.397 1.23444 8.574 1.68 8.574H7.1148C7.56037 8.574 7.98768 8.397 8.30274 8.08194C8.6178 7.76688 8.7948 7.33956 8.7948 6.894V6.3732L11.0424 7.986C11.574 8.292 12.0108 8.04 12.0108 7.428V1.1484C12 0.533999 11.5644 0.281998 11.0316 0.581998Z" fill="#F06B6E"/>
</svg>
